:SAMPLES-PER-SECOND 30
:FULLY-SPECIFIED
:DEGREES
758
root  -48.2183 34.7769 40.4613 -170.476 32.6434 -176.926
RightUpLeg  -8.5943 -26.1058 6.36387
RightLeg  8.51494 -11.116 -0.929691
RightFoot  1.78737 0.0175428 -0.143253
RightToes  -18.7651 -0.0748682 -0.161821
Spine  -2.49576 0.0662184 1.38142
Spine1  -4.52577 0.728877 3.18124
HEad  -33.6917 -19.5751 8.94904
LeftShoulder1  -1.94126e-019 -3.10601e-018 -2.51263e-017
LeftArm  -26.2683 7.27989 -65.9683
LeftForeArm  73.2102 -79.3506 -78.1876
LeftHand  -0.370341 0.221681 8.3642
RightShoulder  -4.96962e-017 0 -2.36833e-017
RightArm  -37.1704 -23.3435 60.2396
RightForeArm  62.8328 78.2364 56.0352
RightHand  1.7397 -14.3691 -22.3598
LeftUpLeg  -3.91814 21.1646 7.42831
LeftLeg  18.3522 18.4538 4.73464
LeftFoot  5.75931 -0.103606 2.22104
LeftToes  -39.3671 2.32378e-006 -5.43956e-008
759
root  -47.9266 34.739 40.3125 -169.037 33.177 -176.681
RightUpLeg  -8.83971 -25.9345 7.14589
RightLeg  7.28625 -10.4483 -0.650575
RightFoot  1.55643 0.0135783 -0.090507
RightToes  -18.4726 -0.0764255 -0.16443
Spine  -2.47218 -0.44085 1.87195
Spine1  -4.62048 -0.369927 4.1688
HEad  -39.4261 -18.4144 11.3936
LeftShoulder1  -1.94126e-019 -3.10601e-018 -2.51263e-017
LeftArm  -21.2378 15.6421 -67.9073
LeftForeArm  51.9162 -77.8321 -59.795
LeftHand  -0.398867 -0.920403 7.46898
RightShoulder  -4.96962e-017 0 -2.36833e-017
RightArm  -35.4764 -30.4848 62.4687
RightForeArm  45.3322 72.8836 33.0398
RightHand  1.39138 -13.2339 -20.6357
LeftUpLeg  -3.59259 19.4057 7.19106
LeftLeg  16.216 20.9048 4.53346
LeftFoot  5.88841 -0.120224 2.49882
LeftToes  -38.5174 2.32378e-006 -5.43956e-008
760
root  -47.6412 34.6753 40.2012 -167.739 33.5611 -176.342
RightUpLeg  -9.03494 -25.3511 7.99637
RightLeg  6.12044 -10.5212 -0.441646
RightFoot  1.5041 0.0136187 -0.0906702
RightToes  -19.3995 -0.0781362 -0.171976
Spine  -2.33701 -1.35939 2.34828
Spine1  -4.49491 -2.31934 5.19634
HEad  -44.9685 -16.1084 13.9769
LeftShoulder1  -1.94126e-019 -3.10601e-018 -2.51263e-017
LeftArm  -15.5043 22.5228 -69.1609
LeftForeArm  53.9026 -77.654 -55.9385
LeftHand  -0.233316 -0.34804 4.79519
RightShoulder  -4.96962e-017 0 -2.36833e-017
RightArm  -32.3157 -34.9922 64.1619
RightForeArm  35.3375 66.7051 22.8935
RightHand  1.13084 -12.0784 -19.7851
LeftUpLeg  -3.6396 16.7847 7.06753
LeftLeg  15.1358 23.9187 4.69424
LeftFoot  5.30608 -0.111393 2.56519
LeftToes  -35.4916 2.32378e-006 -5.43956e-008
761
root  -47.3602 34.6146 40.1044 -166.199 34.765 -175.797
RightUpLeg  -9.864 -26.6612 9.13694
RightLeg  5.83251 -8.21169 -0.304433
RightFoot  1.13245 0.00723337 0.00740193
RightToes  -19.9077 -0.0809446 -0.176079
Spine  -2.29604 -2.06199 2.8969
Spine1  -4.52115 -3.8006 6.37445
HEad  -49.1532 -13.2547 15.8547
LeftShoulder1  -1.94126e-019 -3.10601e-018 -2.51263e-017
LeftArm  -10.3372 27.0566 -70.4411
LeftForeArm  56.0492 -77.3592 -51.6178
LeftHand  -0.291008 -4.17549 3.80967
RightShoulder  -4.96962e-017 0 -2.36833e-017
RightArm  -27.8339 -38.2852 64.1886
RightForeArm  30.9817 62.5453 18.8092
RightHand  0.911135 -11.4541 -17.7702
LeftUpLeg  -4.19495 17.0228 7.34504
LeftLeg  15.2811 24.7632 4.91201
LeftFoot  5.90518 -0.142882 2.93128
LeftToes  -38.4108 2.32378e-006 -5.43956e-008
762
root  -47.2052 34.5949 40.0269 -164.771 37.0933 -175.932
RightUpLeg  -11.1419 -27.4319 9.39107
RightLeg  5.72905 -4.59825 -0.162439
RightFoot  0.886832 0.00334304 0.078311
RightToes  -21.5077 -0.0900223 -0.188833
Spine  -2.31658 -2.22284 3.11582
Spine1  -4.61204 -4.16516 6.86433
HEad  -52.6784 -10.8525 17.7598
LeftShoulder1  -1.94126e-019 -3.10601e-018 -2.51263e-017
LeftArm  -7.47941 28.7967 -71.0231
LeftForeArm  60.6914 -77.3342 -49.0271
LeftHand  0.181981 -6.66495 -1.40256
RightShoulder  -4.96962e-017 0 -2.36833e-017
RightArm  -22.3781 -40.0093 62.9657
RightForeArm  31.5272 59.479 16.1964
RightHand  0.612246 -9.88199 -16.3599
LeftUpLeg  -5.68263 16.8443 6.59632
LeftLeg  17.1427 25.8803 5.96228
LeftFoot  6.05381 -0.1589 3.1659
LeftToes  -38.4183 2.32378e-006 -5.43956e-008
763
root  -47.1374 34.6372 39.9951 -163.358 39.9686 -176.23
RightUpLeg  -12.395 -27.345 9.68861
RightLeg  4.81342 -2.28547 -0.0439128
RightFoot  1.60692 0.00634384 0.0718322
RightToes  -24.6603 -0.108932 -0.213195
Spine  -2.29839 -1.78438 2.94219
Spine1  -4.54073 -3.29791 6.5061
HEad  -55.2759 -8.93976 19.646
LeftShoulder1  -1.94126e-019 -3.10601e-018 -2.51263e-017
LeftArm  -5.31613 28.3942 -70.5106
LeftForeArm  71.4144 -77.9669 -49.0119
LeftHand  0.468228 -7.9226 -3.6995
RightShoulder  -4.96962e-017 0 -2.36833e-017
RightArm  -18.6503 -40.187 62.0785
RightForeArm  33.795 57.2241 14.4336
RightHand  0.284346 -7.57397 -16.0897
LeftUpLeg  -8.97365 15.0088 5.24362
LeftLeg  22.4512 27.014 8.77168
LeftFoot  4.79619 -0.107695 2.73276
LeftToes  -30.6724 2.32378e-006 -5.43956e-008
764
root  -47.1201 34.7381 39.9035 -163.539 42.2896 -177.305
RightUpLeg  -11.9529 -27.5721 8.74074
RightLeg  2.90565 -0.0343443 0.0011713
RightFoot  2.79797 0.00975629 0.124748
RightToes  -27.0396 -0.124076 -0.230873
Spine  -1.87809 -1.14642 2.34704
Spine1  -3.66174 -2.04748 5.27611
HEad  -57.6841 -7.34882 19.5259
LeftShoulder1  -1.94126e-019 -3.10601e-018 -2.51263e-017
LeftArm  -3.81626 26.7137 -69.0751
LeftForeArm  73.4134 -77.8169 -46.9001
LeftHand  0.165362 -7.35852 -1.14043
RightShoulder  -4.96962e-017 0 -2.36833e-017
RightArm  -16.9062 -38.7123 61.9109
RightForeArm  34.1717 56.9977 14.2683
RightHand  0.269865 -7.40942 -16.5121
LeftUpLeg  -13.198 13.5587 3.50961
LeftLeg  30.0483 23.769 11.2938
LeftFoot  3.87736 -0.0644637 2.06586
LeftToes  -22.4576 2.32378e-006 -5.43956e-008
765
root  -47.0634 34.8309 39.6943 -164.539 45.2381 -178.68
RightUpLeg  -11.3629 -27.8983 7.20943
RightLeg  2.13859 2.53453 -0.0677274
RightFoot  3.22534 0.00705795 0.261865
RightToes  -28.3964 -0.133036 -0.240667
Spine  -1.31924 -0.127663 1.58669
Spine1  -2.52693 -0.0384301 3.7195
HEad  -59.4951 -6.3609 17.5891
LeftShoulder1  -1.94126e-019 -3.10601e-018 -2.51263e-017
LeftArm  -5.46981 25.7047 -67.872
LeftForeArm  67.0897 -76.9375 -43.5765
LeftHand  -0.0252902 -6.59354 0.59096
RightShoulder  -4.96962e-017 0 -2.36833e-017
RightArm  -15.32 -35.8071 61.3815
RightForeArm  33.3868 58.8532 15.5887
RightHand  0.471823 -8.56134 -17.8624
LeftUpLeg  -17.7174 16.2123 1.40167
LeftLeg  36.5504 16.7602 10.5494
LeftFoot  2.85583 -0.0257443 1.19435
LeftToes  -22.6703 2.32378e-006 -5.43956e-008
766
root  -46.9427 34.9151 39.5685 -165.277 47.5918 179.883
RightUpLeg  -10.5078 -26.4391 5.74228
RightLeg  0.428841 3.38899 -0.192344
RightFoot  4.05294 0.00530558 0.360163
RightToes  -30.3301 -0.1462 -0.254253
Spine  -1.0055 0.665608 0.835315
Spine1  -1.92387 1.53018 2.21405
HEad  -59.604 -5.78247 14.942
LeftShoulder1  -1.94126e-019 -3.10601e-018 -2.51263e-017
LeftArm  -9.25619 26.1206 -66.7578
LeftForeArm  57.4777 -75.5023 -39.4455
LeftHand  -0.164234 -5.6289 2.05133
RightShoulder  -4.96962e-017 0 -2.36833e-017
RightArm  -13.025 -31.1235 60.4617
RightForeArm  35.381 61.2879 17.2505
RightHand  0.524007 -8.74834 -18.6167
LeftUpLeg  -23.6641 19.4704 -0.878129
LeftLeg  42.4303 14.4611 11.326
LeftFoot  3.51194 -0.0361469 1.34061
LeftToes  -25.2886 2.32378e-006 -5.43956e-008
767
root  -46.7702 34.9426 39.3707 -166.006 49.8841 179.36
RightUpLeg  -9.46934 -25.5811 4.70707
RightLeg  -0.102423 4.26767 -0.281926
RightFoot  3.65564 0.00355337 0.392823
RightToes  -29.2144 -0.138549 -0.246469
Spine  -0.460357 1.51621 0.326153
Spine1  -0.872998 3.22115 1.18729
HEad  -58.6688 -5.26546 11.8132
LeftShoulder1  -1.94126e-019 -3.10601e-018 -2.51263e-017
LeftArm  -13.151 27.2328 -65.8496
LeftForeArm  50.3786 -73.9612 -35.4568
LeftHand  -0.26988 -4.66665 3.40884
RightShoulder  -4.96962e-017 0 -2.36833e-017
RightArm  -11.0278 -24.7688 59.1859
RightForeArm  38.0997 63.05 18.4938
RightHand  0.435466 -8.16606 -18.7928
LeftUpLeg  -28.9277 22.787 -2.71767
LeftLeg  46.1423 16.0939 14.2263
LeftFoot  4.72154 -0.079249 2.02973
LeftToes  -25.8499 2.32378e-006 -5.43956e-008
